<svg width="1343" height="615" viewBox="0 0 1343 615" fill="none" xmlns="http://www.w3.org/2000/svg">
<path id="Line_glow" d="M-21 463.171C183.792 466.199 86.8375 785.085 192.202 434.915C225.028 325.819 275.812 245.717 319.213 189.191M319.213 189.191C415.117 64.2844 474.97 54.5018 225.344 101.397C-137.247 169.513 818.451 618.578 375.229 463.171C-67.9934 307.765 1158.05 -101.944 319.213 189.191ZM618.605 463.171C623.354 413.522 661.476 222.156 679.944 132.68C734.357 42.194 829.333 -90.7427 773.931 101.397C718.528 293.536 595.85 386.982 541.437 409.687C483.396 517.833 402.139 699.712 541.437 562.066C715.56 390.009 842.689 -36.8549 854.067 152.358C865.444 341.571 652.242 418.265 740.788 508.582C829.333 598.9 956.958 -133.227 948.548 101.397C940.139 336.02 779.372 593.35 890.178 494.454C1000.98 395.559 1092.5 -110.017 1073.2 50.9398C1053.91 211.897 923.815 689.217 1040.06 528.26C1156.31 367.303 1223.09 197.769 1206.27 132.68C1189.45 67.5905 1488.31 576.194 1241.89 528.26C1056.68 492.235 1184.51 423.406 1286.41 387.871M1286.41 387.871C1292.97 385.58 1299.44 383.428 1305.7 381.431L1286.41 387.871Z" stroke="#04C4D9" stroke-width="6"/>
</svg>
